<?xml version="1.0" encoding="utf-8"?>
<!-- Generator: Adobe Illustrator 26.0.0, SVG Export Plug-In . SVG Version: 6.00 Build 0)  -->
<svg version="1.1" id="Layer_1" xmlns="http://www.w3.org/2000/svg" xmlns:xlink="http://www.w3.org/1999/xlink" x="0px" y="0px"
	 viewBox="0 0 1588.1 367.1" style="enable-background:new 0 0 1588.1 367.1;" xml:space="preserve">
<style type="text/css">
	.st0{fill:#D0A650;}
	.st1{fill:#3259D6;}
</style>
<path class="st0" d="M357,169.7h43.6v-36.8H357V98.8l-73.3-42.4l-73.3-42.4l-73.3,42.4L64,98.8v34.1H16.5v36.8H64v13.9v13.9H16.5
	v36.8H64v34.1l73.3,42.4l73.3,42.4l73.3-42.4l73.3-42.4v-34.1h43.6v-36.8H357v-13.9V169.7z M306,132.9v36.8h-24.4
	c-0.4-0.2-0.8-0.3-1.3-0.3c-0.1,0.1-0.3,0.2-0.4,0.3h-7.6c-0.6-0.2-1.2-0.2-2-0.2c-1.3-0.9,0.7-2.7-0.7-3.9c-2-0.1-3.7,0-5.2,0.9
	l-3.3-1.2c-1.8-1.1-4.3-0.5-6.2-0.9l0.7-0.4c0.3-1.5,0.7-3.7-0.5-5c0.7-2.4,3.5-4.2,2.2-6.9c-1.5,0-3.2-0.3-4.5,0.2
	c-0.5-0.7-2,0.4-1.8-0.9c0-3.5-4.5-1.7-6.5-2.6V148c-3-1.5-2.2-4-1.7-6.9c-0.3-1.5-1.3-2.7-2.5-4.1c-1.8-0.4-2.2,0.9-3,1.7
	c-0.7-1.5-1.5-3-1.5-4.7c-1-1.5,0-3.6-1.5-4.9c-3,0.9-2.3-3.6-5-2.9l-0.7,2c-1.2,0.4-2.2-0.5-2.5-1.5c-7,2.7-8.2-4.5-14.5-3.6
	c1-1.1,2.7-1.4,4-2c0-2.1-1-3.9-2.5-5.6l0,0c0-1.5-2.4-0.9-2.6-2.5c-0.9-0.7-1.9,0.1-2.7,0c-2,2.7-5.5,2.7-8.1,4.2
	c-1,1.5-2.7,0.9-3.7,1.7c-2.6-0.6-1.5,2.1-2.6,3.2c-0.3,0.9,0.1,1.5,0.9,1.9c0.3,1.4,1.1,2.4,1.1,3.9c0.6-0.2,1.6,0.2,2-0.4
	c1.1,0.9,1.9,1.6,1.9,3c-0.5,0.6-1.1,0.9-1.9,1c-1.5,1.4-0.4,3.5-0.9,5.2c-1.1,0.6-1.4,2.5-3,2.5c-0.4-0.1-0.1-0.9-0.1-1.5
	c-4.6-2.1-2.4,3.7-5.3,4.7c-1.1-0.2-2.1,0.3-3,0.6c-0.7,1.4-2.2,2.4-1.6,4.4c-0.2,1.8,3.5,2.5,2.5,4.5c-0.9,3-5.3,0.9-5.4,3.4
	c-1-0.6-2.1-1-3.5-0.7c-1.1,0-2,1.3-3,0.6c-1.5,1.5-4,1.5-6.1,1c-1.1,0.5-2.5,1.1-2.7,2c-1.5,1.5-2.5,2.7-2.5,4.9
	c-1.4-0.6-2.7,0-3.9,0.3c-1.1-1.3-3.1-0.6-4.2-2.1c-1.4-0.4-2.5-0.9-3.9-0.6c-1.4,0.9-3.2,1.3-4.1,2.4c-3.4-0.5-0.2,3.4-3,4.3
	c0,0.6-0.3,1.5,0.2,2c2,1,3.6,2.7,5.9,3.1c1.3-0.4,2.6,0.7,3.7,1.5c-0.5,0.9-1,2-1.9,2.3c-0.2,1.6,0,3.2,0.9,4.7
	c-0.4,0.7-0.4,1.6-1.4,2.5c1.3,3.9,6.9,3.5,8.7,7.4c-0.5,1.2,0.4,1.5,1.1,2.1c-1.4,2.1,2,2.4,1.7,4.2c-0.1,0.3-0.4,0.7-0.9,0.5v1.7
	c4.4,1.6,1.4,5.4,3,8.1c2.5-0.6,5,1.1,7-0.2c0.5,0.5,1.1,0.9,1.4,1.4c2.7-0.2,3.2,3.3,6,3.3c3.9,0.4,4,4.6,6.7,6.2
	c0,1.9,1,3.4,1.4,5c0.9,2,2.5,4.2,0.9,6.1c-0.6,2.4,1.3,3.9,2.4,4.9c1.7,2.5,1.1,5.6,2.9,7.7c0.7,2.6-2,3.5-3.6,4.7
	c-0.6,2,1.4,3,0.7,5.2c1.5,0.7,1.1,2.5,3.1,2.5c1.4,0,2.5-0.7,2.7-2.1c0.9,0.9,1.9,1.9,3.2,1.5c1.4-0.9,3.4-1.5,4-2.7
	c0.5-0.5,0.7-0.9,1.4-0.9c-0.2-0.7,0-1.1,0.7-1.5c0.4-0.3,0.6-1.1,0.4-1.8c-1.1-1.8,1.6-1.8,0.7-3.6c-2.1-1.5-2.5-3.6-2.1-6.1
	c1-1,0.2-3.1,1.9-3.7c0.2-3.2,4.4-1,5.7-3.2c3.5,1.9,4.7-2.6,7-3.8c5-0.1,9.2-3.4,12.7-6.7c1,1.2,2.3,1.6,3.8,2.2
	c0,1.8,2.2,2.6,3,3.9c0.7,1.4-0.5,3.9,1.5,4.4c2.5,0.7,6.5,1.5,8.7-0.5c0-0.7,0.3-1.8-0.2-2.2c-3.7-2.6,1.7-4.6,1.2-7.6
	c3.3,0.4,1.5-3,3.7-3.9c1.8-0.9,1.5,1.5,3.5,0.9c1,0,0.5-1.1,0.5-1.5c-1-1.4,1.2-1.7,1-2.9c1.2,0.2,2.7,0.2,3.5,1.1
	c0.7,0.4,0,1.4,0.7,1.7c3-1.1,6.2,1.1,8.7-0.9l-2.5-2.5c-1-1.5-1.8-4-4.2-3.7c0.2-1.8-1.3-2.4-0.7-4.1c1-1.5,2.5,0.3,4-0.1
	c0-2.6,2.5,0,3.8-1.4c0-2.2,2.6-3.8,1.3-6.1H306v1v36.8v4.4l-47.8,27.5l-47.8,27.5l-47.8-27.5L115,238.6v-4.4v-36.8v-13.9v-13.9
	v-36.8v-4.4l47.8-27.5l47.8-27.5l47.8,27.5l47.8,27.5V132.9z"/>
<g>
	<path class="st1" d="M465.3,264.6c-13.2-7.6-23.5-18.1-30.9-31.5c-7.4-13.4-11.1-28.5-11.1-45.3c0-16.8,3.7-31.9,11.1-45.3
		c7.4-13.4,17.7-23.9,30.9-31.5c13.2-7.6,28-11.4,44.4-11.4c14.2,0,27.1,2.8,38.9,8.3c11.8,5.5,21.7,13.4,29.7,23.7
		c8,10.3,13.3,22.1,16.1,35.6h-38.3c-3.3-9.6-9-17.2-17.2-22.9c-8.2-5.7-17.7-8.5-28.4-8.5c-9.4,0-17.9,2.2-25.3,6.7
		c-7.4,4.5-13.2,10.7-17.5,18.6c-4.2,7.9-6.3,16.8-6.3,26.7c0,9.9,2.1,18.8,6.3,26.7c4.2,7.9,10,14.1,17.5,18.6
		c7.4,4.5,15.8,6.7,25.3,6.7c10.9,0,20.5-3,28.9-9c8.4-6,14.2-14.1,17.5-24.2h37.8c-2.6,13.8-7.9,26-15.7,36.5
		c-7.9,10.5-17.8,18.6-29.8,24.3c-12,5.7-25.1,8.5-39.4,8.5C493.3,276,478.5,272.2,465.3,264.6z"/>
	<path class="st1" d="M620.8,143.9h32.5l1.2,14.4c4.4-5.4,9.6-9.4,15.6-12.2c6-2.8,12.6-4.1,19.8-4.1c4.7,0,9.7,0.7,14.9,2v32.2
		c-6.2-1.1-11.1-1.7-14.9-1.7c-10.6,0-18.9,3-25,8.9c-6.1,5.9-9.2,14.2-9.2,24.8v65.2h-34.9V143.9z"/>
	<path class="st1" d="M738.2,309.7l21.7-49.1l-47.4-113.3v-3.4h37.1l17.3,43.2l11.7,32.7l12.2-32.5l17.6-43.5h36.9v3.4l-69.6,165.5
		h-37.6V309.7z"/>
	<path class="st1" d="M900.8,263.1v49.8h-34.9V143.9h30.3l1.2,12.9c5.5-5,11.9-8.9,19.2-11.6c7.2-2.7,14.9-4,23.1-4
		c12.4,0,23.5,2.9,33.3,8.7c9.8,5.8,17.5,13.8,23.1,24c5.5,10.3,8.3,21.8,8.3,34.7c0,12.5-2.7,23.9-8.1,34.2
		c-5.4,10.3-13,18.4-22.8,24.3c-9.8,5.9-21,8.9-33.6,8.9C925,276,912,271.7,900.8,263.1z M910.2,233.5c6.4,6.5,14.7,9.8,24.8,9.8
		c9.9,0,18.1-3.3,24.5-9.8c6.4-6.5,9.6-14.8,9.6-24.9c0-10.1-3.2-18.4-9.6-24.9c-6.4-6.5-14.6-9.8-24.5-9.8
		c-10.1,0-18.4,3.3-24.8,9.8c-6.4,6.5-9.6,14.8-9.6,24.9C900.5,218.7,903.7,227,910.2,233.5z"/>
	<path class="st1" d="M1050.7,264.2c-8.1-7.6-12.2-19-12.2-34.3v-56.1h-22.9v-29.8h22.9v-27.6l34.9-3.7v31.2h31.2v29.8h-31.2V226
		c0,6.7,1.7,11.4,5,14.3c3.3,2.8,8.5,4.3,15.5,4.3c4.4,0,8.5-0.3,12.5-1v29.8c-7.3,1.5-14.3,2.2-21,2.2
		C1070.4,275.5,1058.8,271.7,1050.7,264.2z"/>
	<path class="st1" d="M1156.6,267.3c-10.6-5.8-18.8-13.8-24.8-24c-5.9-10.3-8.9-21.8-8.9-34.7c0-12.9,3-24.4,8.9-34.7
		c5.9-10.3,14.2-18.3,24.8-24c10.6-5.8,22.5-8.7,35.6-8.7s25.1,2.9,35.6,8.7c10.6,5.8,18.8,13.8,24.8,24c5.9,10.3,8.9,21.8,8.9,34.7
		c0,12.9-3,24.4-8.9,34.7c-5.9,10.3-14.2,18.3-24.8,24c-10.6,5.8-22.5,8.7-35.6,8.7S1167.2,273.1,1156.6,267.3z M1168,233.4
		c6.4,6.6,14.5,9.9,24.3,9.9c9.8,0,17.9-3.3,24.3-9.9c6.4-6.6,9.6-14.9,9.6-24.8c0-9.9-3.2-18.2-9.6-24.8
		c-6.4-6.6-14.5-9.9-24.3-9.9c-9.8,0-17.9,3.3-24.3,9.9c-6.4,6.6-9.6,14.9-9.6,24.8C1158.3,218.5,1161.5,226.8,1168,233.4z"/>
	<path class="st0" d="M1327,198.4v74.9h-37.4V102.4h37.4v73.7l51.8-73.7h41.5v4.1l-57.9,79.6l61,83v4.1h-43L1327,198.4z"/>
	<path class="st0" d="M1452.1,260.6c-11.6-9.9-18-23.8-19.2-41.7h36.9c0.6,7.2,3.5,12.7,8.4,16.5c5,3.8,11.9,5.7,20.9,5.7
		c8.5,0,15.1-1.5,19.8-4.6c4.7-3.1,7.1-7.3,7.1-12.7c0-5.5-2.5-9.8-7.4-12.9c-5-3.1-13.5-5.7-25.5-7.8c-18.7-3.3-33-8.8-42.8-16.7
		c-9.8-7.9-14.8-19.2-14.8-34.1c0-10.6,2.6-19.8,7.9-27.7c5.3-7.9,12.7-14,22.1-18.2c9.4-4.2,20.2-6.3,32.2-6.3
		c17.9,0,32.5,4.8,43.8,14.5c11.3,9.7,17.7,22.7,19.2,39.2h-36.9c-1-6.5-3.7-11.4-8.3-14.6c-4.6-3.3-10.7-4.9-18.6-4.9
		c-7.7,0-13.7,1.5-18.1,4.5c-4.4,3-6.6,7.1-6.6,12.3c0,5.2,2.3,9.2,7,12c4.6,2.8,13,5.1,25,7.1c19.2,3.3,33.9,9,44.1,17.3
		c10.2,8.3,15.3,19.9,15.3,34.9c0,10.9-2.8,20.4-8.3,28.4c-5.5,8.1-13.2,14.2-22.9,18.4c-9.8,4.2-20.8,6.3-33.2,6.3
		C1479.4,275.5,1463.8,270.5,1452.1,260.6z"/>
</g>
</svg>
